<?xml version="1.0" standalone="no"?><!DOCTYPE svg PUBLIC "-//W3C//DTD SVG 1.1//EN" "http://www.w3.org/Graphics/SVG/1.1/DTD/svg11.dtd"><svg t="1765887670877" class="icon" viewBox="0 0 5854 1024" version="1.1" xmlns="http://www.w3.org/2000/svg" p-id="6233" xmlns:xlink="http://www.w3.org/1999/xlink" width="1143.359375" height="200"><path d="M5252.885496 406.473282l183.694657-195.419847c11.725191-15.633588 15.633588-23.450382 15.633587-31.267175 0-15.633588-11.725191-19.541985-50.80916-19.541985H5354.503817V35.175573h500.274809v125.068702h-66.442748c-74.259542 0-89.89313 11.725191-195.419847 144.610687l-289.221375 312.671756v191.51145c0 46.900763 23.450382 66.442748 93.801527 66.442748h109.435115v117.251908H4807.328244v-117.251908h109.435115c70.351145 0 93.801527-15.633588 93.801526-66.442748v-191.51145l-340.030534-375.206107c-54.717557-66.442748-46.900763-82.076336-207.145038-82.076336V35.175573h633.160305v125.068702h-46.900763c-46.900763 0-66.442748 7.816794-66.442748 27.358778 0 15.633588 15.633588 27.358779 23.450382 39.08397l171.969465 187.603053c27.358779 15.633588 50.80916 19.541985 74.259542-7.816794zM1008.366412 35.175573h152.427481v343.938931h-140.70229c-11.725191-70.351145-54.717557-93.801527-93.801527-132.885496-70.351145-66.442748-222.778626-117.251908-351.755725-117.251909-168.061069 0-304.854962 50.80916-304.854962 128.977099 0 211.053435 949.740458 42.992366 949.740458 441.648855 0 207.145038-203.236641 324.396947-570.625954 324.396947-125.068702 0-316.580153-39.083969-429.923664-97.709924-35.175573-19.541985-50.80916 19.541985-58.625954 70.351145h-156.335878v-355.664122h140.70229c31.267176 89.89313 74.259542 109.435115 113.343511 144.610687 70.351145 62.534351 230.59542 109.435115 383.022901 105.526718 226.687023-3.908397 304.854962-50.80916 304.854962-125.068702 0-70.351145-78.167939-89.89313-324.396946-128.9771l-211.053436-35.175572C171.969466 566.717557 0 512 0 324.396947 0 128.977099 218.870229 3.908397 562.80916 3.908397c144.610687 0 265.770992 19.541985 383.022901 85.984733 35.175573 23.450382 62.534351 23.450382 62.534351-54.717557zM3986.564885 609.709924l3.908397-383.022901c0-50.80916-27.358779-66.442748-101.61832-66.442748h-85.984733v-117.251909h558.900763v117.251909h-74.259542c-74.259542 0-101.618321 15.633588-101.61832 66.442748v769.954198h-218.870229L3259.603053 328.305344v484.641221c0 46.900763 27.358779 66.442748 101.618321 66.442748h97.709924v117.251908H2880.48855v-117.251908h97.709923c74.259542 0 101.618321-19.541985 101.618321-66.442748v-586.259542c0-50.80916-27.358779-66.442748-101.618321-66.442748h-97.709923v-117.251909h500.274809L3986.564885 609.709924zM2118.351145 0C1672.793893 0 1395.29771 195.419847 1395.29771 512c0 308.763359 273.587786 504.183206 707.419847 504.183206 461.19084 0 730.870229-191.51145 730.870229-519.816794C2837.496183 199.328244 2548.274809 0 2118.351145 0zM2110.534351 891.114504c-246.229008 0-386.931298-140.70229-386.931298-386.931298 0-238.412214 148.519084-383.022901 398.656489-383.022901 242.320611 0 383.022901 144.610687 383.022901 390.839695 0 242.320611-144.610687 379.114504-394.748092 379.114504z" fill="#231815" p-id="6234"></path></svg>